<?xml version="1.0" standalone="no"?> <!DOCTYPE svg PUBLIC "-//W3C//DTD SVG 1.0//EN" "http://www.w3.org/TR/2001/REC-SVG-20010904/DTD/svg10.dtd" > <svg xmlns="http://www.w3.org/2000/svg" width="100%" height="100%">
<defs >
<font id="mreavessanot-regitalic" horiz-adv-x="877" ><font-face
    font-family="MrEavesSanOT"
    units-per-em="2048"
    panose-1="2 11 6 3 6 5 2 9 2 2"
    ascent="1720"
    descent="-553"
    alphabetic="0" />
<missing-glyph horiz-adv-x="1024" />
<glyph unicode=" " glyph-name="space" horiz-adv-x="311" />
<glyph unicode="!" glyph-name="exclam" horiz-adv-x="466" d="M172 328L283 1229H473L262 328H172ZM166 -16Q121 -16 93 15T70 90Q74 135 108 166T186 197Q231 197 259 166T283 90Q278 46 244 15T166 -16Z" />
<glyph unicode="&quot;" glyph-name="quotedbl" horiz-adv-x="765" d="M262 805Q274 921 270 983T258 1095T254 1163Q261 1210 291 1237T362 1264Q403 1264 430 1234T451 1163Q449 1151 398 1042T313 805H262ZM584 805Q595 921 591 983T579 1095T575 1163Q583
1210 613 1237T684 1264T751 1234T772 1163Q768 1144 746 1101T692 979T635 805H584Z" />
<glyph unicode="#" glyph-name="numbersign" horiz-adv-x="843" d="M121 193L197 467H47L80 575H227L301 848H152L184 956H332L408 1229H514L440 956H639L715 1229H821L748 956H897L862 848H717L641 575H793L758 467H610L535 193H428L504 467H303L227 193H121ZM334
575H535L608 848H410L334 575Z" />
<glyph unicode="$" glyph-name="dollar" horiz-adv-x="925" d="M319 -170L348 -6Q246 5 170 50T55 150L104 285Q136 244 163 216T247 157T371 117L455 590Q309 633 246 726T201 944Q219 1065 321 1149T567 1239L596 1399H688L659 1233Q726 1221 785 1190T877 1120L831
1006Q785 1047 740 1073T637 1110L565 705Q714 653 779 559T825 338Q810 227 752 149T616 35T440 -6L412 -170H319ZM463 117Q551 129 611 187T684 332Q695 410 663 464T541 559L463 117ZM479 733L547 1116Q467 1111 411 1064T342 940Q321 796 479 733Z" />
<glyph unicode="%" glyph-name="percent" horiz-adv-x="1380" d="M248 -37L180 0L1188 1266L1255 1229L248 -37ZM527 645T412 645T232 732T184 952Q203 1084 291 1170T494 1257Q609 1257 675 1170T723 952Q704 819 616 732ZM424 750Q484 750 534 802T598 952Q612
1049 577 1101T481 1153Q421 1153 373 1102T309 952Q295 853 329 802T424 750ZM938 -25Q823 -25 758 62T711 283Q729 414 818 501T1022 588Q1138 588 1203 502T1249 283Q1231 149 1143 62T938 -25ZM950 80Q1010 80 1060 132T1124 283Q1139 380 1104 431T1008 483Q947
483 899 432T836 283Q821 184 854 132T950 80Z" />
<glyph unicode="&amp;" glyph-name="ampersand" horiz-adv-x="1351" d="M485 725Q539 753 566 768T639 810T708 857T758 904T798 959T815 1018Q822 1081 776 1122T657 1163Q563 1163 502 1104T432 971Q419 857 485 725ZM506 76Q619 76 713 158Q644 235 561 346T414
563Q252 455 236 317Q225 216 302 146T506 76ZM477 -35Q394 -35 321 -13T190 51T104 164T84 324Q95 427 167 505T360 657Q272 836 287 969Q300 1095 411 1179T670 1264Q802 1264 882 1193T952 1018Q949 990 940 963T920 914T889 869T853 829T807 792T760 758T706
726T652 696T595 666T539 637Q633 480 807 274Q860 374 895 616H1208L1198 516H1001Q988 430 958 334T887 188Q957 118 1010 93T1126 68Q1159 68 1200 86T1272 139L1303 84Q1257 24 1198 -5T1081 -35Q997 -35 931 -11T793 78Q663 -35 477 -35Z" />
<glyph unicode="&apos;" glyph-name="quotesingle" horiz-adv-x="423" d="M254 805Q266 921 262 983T250 1095T246 1163Q253 1210 283 1237T354 1264Q395 1264 422 1234T442 1163Q438 1144 416 1101T362 979T305 805H254Z" />
<glyph unicode="(" glyph-name="parenleft" horiz-adv-x="638" d="M436 -227Q87 109 174 604Q263 1102 729 1436L770 1393Q720 1347 675 1300T569 1173T459 1013T368 824T305 604Q229 173 487 -184L436 -227Z" />
<glyph unicode=")" glyph-name="parenright" horiz-adv-x="638" d="M-37 -227L-78 -184Q316 181 389 604Q464 1035 205 1393L260 1436Q606 1099 518 604Q431 106 -37 -227Z" />
<glyph unicode="*" glyph-name="asterisk" horiz-adv-x="755" d="M416 526Q379 526 355 556T336 625Q338 643 358 672T400 749T432 864Q386 835 353 803T305 747T275 704T246 676Q209 656 172 667T119 713T118 783T168 838Q184 847 217 847T304 856T420 895Q364
925 312 934T227 943T180 952Q149 973 141 1008T156 1077T219 1122T291 1114Q303 1107 314 1087T335 1043T372 988T440 926Q443 977 436 1019T418 1084T399 1128T393 1165Q398 1205 427 1234T494 1264Q532 1264 558 1234T580 1165Q578 1150 565 1128T536 1084T503
1019T477 924Q537 961 575 1002T632 1072T668 1110Q703 1130 739 1121T793 1077Q808 1048 793 1009T745 950Q727 940 694 940T607 933T492 895Q549 866 601 858T686 850T733 842Q764 822 771 783T756 713Q730 679 693 670T623 680Q611 687 600 706T578 748T539
804T471 866Q468 800 482 750T510 672T522 625Q517 586 486 556T416 526Z" />
<glyph unicode="+" glyph-name="plus" horiz-adv-x="854" d="M315 102L371 414H78L98 524H391L446 836H557L502 524H793L772 414H481L426 102H315Z" />
<glyph unicode="," glyph-name="comma" horiz-adv-x="466" d="M53 -248L14 -205Q78 -144 107 -103T152 -6Q113 -4 89 25T70 94T106 163T176 193Q222 193 251 160T272 63Q264 -12 205 -103T53 -248Z" />
<glyph unicode="-" glyph-name="hyphen" horiz-adv-x="571" d="M72 362L92 477H500L479 362H72Z" />
<glyph unicode="." glyph-name="period" horiz-adv-x="466" d="M166 -16Q121 -16 93 15T70 90Q74 135 108 166T186 197Q231 197 259 166T283 90Q278 46 244 15T166 -16Z" />
<glyph unicode="/" glyph-name="slash" horiz-adv-x="641" d="M0 -37L-74 -8L711 1266L784 1237L0 -37Z" />
<glyph unicode="0" glyph-name="zero" horiz-adv-x="1085" d="M489 -25Q385 -25 299 16T161 125T87 282T82 467Q116 662 258 785T592 909Q697 909 783 868T921 760T994 603T999 418Q965 223 823 99T489 -25ZM504 90Q629 90 726 181T850 418Q865 503 850 575T796
694T701 768T578 795Q452 795 355 704T231 467Q216 382 231 310T286 191T381 117T504 90Z" />
<glyph unicode="1" glyph-name="one" horiz-adv-x="567" d="M131 0L260 733H129L147 834L436 909L276 0H131Z" />
<glyph unicode="2" glyph-name="two" horiz-adv-x="999" d="M76 0L55 115L436 344Q491 377 528 400T604 453T667 508T707 563T725 623Q732 705 677 744T530 784Q368 784 172 641L201 801Q373 918 545 918Q704 918 799 840T885 637Q880 582 856 534T791 445T706
375T604 311L291 137H825L801 0H76Z" />
<glyph unicode="3" glyph-name="three" horiz-adv-x="976" d="M311 -412Q211 -412 123 -378T-16 -291L6 -135Q66 -205 140 -244T326 -283Q461 -283 546 -206T651 6Q669 123 612 198T438 274Q311 274 221 195L166 268L692 754H147L170 885H901L922 803L473 389Q548
387 613 360T726 284T796 163T805 4Q777 -186 643 -299T311 -412Z" />
<glyph unicode="4" glyph-name="four" horiz-adv-x="1021" d="M446 -399L516 0H16L-4 90L739 922H825L682 117H905L885 0H662L592 -399H446ZM162 117H537L631 641L162 117Z" />
<glyph unicode="5" glyph-name="five" horiz-adv-x="960" d="M303 -412Q203 -412 115 -378T-25 -291L-2 -135Q58 -205 132 -244T317 -283Q448 -283 542 -198T655 18Q672 138 614 219T434 301Q266 301 160 133L90 164L217 885H905L883 754H324L250 340Q349 422
475 422Q637 422 732 311T801 18Q773 -174 636 -293T303 -412Z" />
<glyph unicode="6" glyph-name="six" horiz-adv-x="1046" d="M502 -29Q460 -29 420 -21T335 5T255 53T187 128T137 233T114 373T123 551Q171 897 339 1080T770 1264Q848 1264 917 1242T1020 1186L995 1044Q906 1128 750 1128Q670 1128 599 1101T466 1018T358 869T287
653Q339 706 421 746T596 786Q767 786 867 662T942 362Q917 188 795 80T502 -29ZM508 90Q628 90 703 163T795 365Q812 491 749 576T567 662Q470 662 394 621T268 514Q259 428 262 363T284 250T328 172T385 123T447 98T508 90Z" />
<glyph unicode="7" glyph-name="seven" horiz-adv-x="868" d="M45 -399Q145 -140 374 262T680 754H92L115 885H850L870 805Q755 681 533 279T217 -399H45Z" />
<glyph unicode="8" glyph-name="eight" horiz-adv-x="1048" d="M451 -29Q285 -29 183 60T80 293Q80 433 181 538T438 686Q358 728 312 790T266 932Q266 1075 382 1169T657 1264Q792 1264 881 1194T969 1010Q967 907 890 818T688 686Q790 649 857 564T924 369Q924
193 788 82T451 -29ZM582 745Q701 781 763 852T825 1006Q825 1070 781 1110T645 1151Q541 1151 476 1089T410 946Q410 803 582 745ZM463 92Q599 92 687 174T776 367Q776 547 551 614Q227 524 227 295Q227 206 289 149T463 92Z" />
<glyph unicode="9" glyph-name="nine" horiz-adv-x="1046" d="M260 -410Q182 -410 113 -387T10 -332L35 -190Q124 -274 281 -274Q443 -274 572 -140T750 238Q696 184 614 144T440 104Q328 104 243 161T118 315T94 528Q119 702 241 811T535 920Q576 920 616 912T701
886T781 838T849 763T899 658T922 518T913 340Q864 -10 691 -210T260 -410ZM469 229Q566 229 642 270T768 377Q777 464 774 529T752 641T708 719T651 768T589 793T528 801Q408 801 334 728T242 526Q224 400 287 315T469 229Z" />
<glyph unicode=":" glyph-name="colon" horiz-adv-x="466" d="M298 483T254 483T182 514T158 590Q163 634 196 665T274 696Q319 696 347 665T371 590Q367 545 333 514ZM166 -16Q121 -16 93 15T70 90Q74 135 108 166T186 197Q231 197 259 166T283 90Q278 46 244
15T166 -16Z" />
<glyph unicode=";" glyph-name="semicolon" horiz-adv-x="466" d="M298 483T254 483T182 514T158 590Q163 634 196 665T274 696Q319 696 347 665T371 590Q367 545 333 514ZM55 -248L16 -205Q80 -144 109 -103T154 -6Q115 -5 91 24T72 94T108 163T178 193Q224 193
253 160T274 63Q266 -12 207 -103T55 -248Z" />
<glyph unicode="&lt;" glyph-name="less" horiz-adv-x="864" d="M633 25L117 471L788 915L829 831L299 465L700 98L633 25Z" />
<glyph unicode="=" glyph-name="equal" horiz-adv-x="854" d="M164 545L184 655H752L731 545H164ZM119 287L139 397H707L686 287H119Z" />
<glyph unicode="&gt;" glyph-name="greater" horiz-adv-x="864" d="M86 25L45 109L575 475L174 842L242 915L758 469L86 25Z" />
<glyph unicode="?" glyph-name="question" horiz-adv-x="860" d="M279 328L307 578L426 631Q589 704 662 777T743 940Q752 1036 688 1085T512 1135Q424 1135 314 1090T135 979L154 1135Q218 1189 327 1226T539 1264Q618 1264 686 1245T807 1187T886 1087T903 946Q876
703 539 557L420 506L373 328H279ZM274 -16Q230 -16 202 15T178 90Q182 135 216 166T295 197T367 166T391 90Q386 46 353 15T274 -16Z" />
<glyph unicode="@" glyph-name="at" horiz-adv-x="1392" d="M637 88Q696 88 756 143T840 279L928 600Q890 651 807 651Q721 651 651 571T543 362Q505 240 528 164T637 88ZM643 -309Q507 -309 390 -261T193 -130T73 69T47 317Q67 512 182 677T473 939T844 1036Q964
1036 1064 997T1234 889T1337 718T1358 498Q1348 401 1303 307T1195 145T1061 36T924 -6Q869 -6 837 25T801 98Q761 52 697 19T586 -14Q523 -14 478 16T412 97T390 217T412 362Q457 520 574 628T829 737Q902 737 958 702H1073L932 201Q914 135 927 107T985 78Q1068
78 1167 205T1282 494Q1293 597 1265 683T1178 826T1039 914T864 946Q739 946 619 895T408 760T255 561T182 324Q156 69 291 -80T668 -229Q888 -229 1116 -98L1133 -145Q885 -309 643 -309Z" />
<glyph unicode="A" glyph-name="A" horiz-adv-x="1122" d="M-59 0L649 1229H748L1022 0H870L795 344H291L92 0H-59ZM365 477H766L655 983L365 477Z" />
<glyph unicode="B" glyph-name="B" horiz-adv-x="989" d="M59 0L276 1229H623Q790 1229 870 1137T928 907Q915 838 868 772T758 664Q837 627 877 537T901 350Q873 191 767 96T475 0H59ZM236 131H477Q597 131 665 193T752 350Q762 392 753 434T722 511T655 566T547
588H315L236 131ZM340 717H553Q651 717 710 772T782 907Q796 986 758 1042T621 1098H408L340 717Z" />
<glyph unicode="C" glyph-name="C" horiz-adv-x="1150" d="M616 -27Q500 -27 399 21T228 154T125 364T113 635Q140 828 239 970T481 1184T791 1255Q899 1255 1001 1220T1169 1126L1143 971Q999 1122 768 1122Q646 1122 542 1065T364 897T270 635Q249 486 291 364T425
174T637 106Q761 106 859 148T1049 266L1022 102Q938 43 831 8T616 -27Z" />
<glyph unicode="D" glyph-name="D" horiz-adv-x="1212" d="M59 0L276 1229H621Q733 1229 824 1206T977 1140T1083 1038T1146 909T1170 758T1157 594Q1139 490 1102 402T1004 239T861 112T669 30T424 0H59ZM236 135H436Q570 135 674 174T842 284T944 435T999 614Q1010
678 1010 735T1000 847T959 946T884 1024T768 1076T606 1094H406L236 135Z" />
<glyph unicode="E" glyph-name="E" horiz-adv-x="931" d="M59 0L276 1229H967L942 1098H406L340 713H782L758 584H315L238 131H774L750 0H59Z" />
<glyph unicode="F" glyph-name="F" horiz-adv-x="856" d="M59 0L276 1229H967L942 1098H406L340 713H782L758 584H315L213 0H59Z" />
<glyph unicode="G" glyph-name="G" horiz-adv-x="1273" d="M637 -35Q514 -35 408 14T230 150T126 363T113 635Q140 829 240 973T487 1190T811 1264Q919 1264 1022 1229T1190 1135L1163 979Q1092 1051 1003 1090T788 1130Q589 1130 446 996T270 635Q249 485 292
362T431 170T657 100Q802 100 934 172L983 453H748L772 590H1159L1071 94Q1063 90 1007 63T907 18T787 -17T637 -35Z" />
<glyph unicode="H" glyph-name="H" horiz-adv-x="1212" d="M59 0L276 1229H430L340 713H967L1057 1229H1210L993 0H840L942 584H315L213 0H59Z" />
<glyph unicode="I" glyph-name="I" horiz-adv-x="432" d="M59 0L276 1229H430L213 0H59Z" />
<glyph unicode="J" glyph-name="J" horiz-adv-x="430" d="M-90 -406Q-142 -406 -180 -386T-231 -344L-215 -227Q-199 -247 -165 -264T-102 -281Q-41 -281 -9 -244T41 -106L276 1229H430L190 -125Q168 -253 98 -329T-90 -406Z" />
<glyph unicode="K" glyph-name="K" horiz-adv-x="1044" d="M59 0L276 1229H430L330 659L952 1229H1133L516 670L991 0H805L406 573L299 479L213 0H59Z" />
<glyph unicode="L" glyph-name="L" horiz-adv-x="858" d="M59 0L276 1229H430L238 131H774L750 0H59Z" />
<glyph unicode="M" glyph-name="M" horiz-adv-x="1449" d="M59 0L276 1229H414L676 209L1298 1229H1448L1231 0H1083L1231 836L1251 940Q1241 914 1196 836L692 0H590L383 834L362 942L346 834L199 0H59Z" />
<glyph unicode="N" glyph-name="N" horiz-adv-x="1183" d="M59 0L276 1229H362L877 299L1040 1229H1182L965 0H877L362 930L199 0H59Z" />
<glyph unicode="O" glyph-name="O" horiz-adv-x="1394" d="M645 -35Q520 -35 413 14T233 148T126 354T109 614Q132 800 229 948T478 1180T805 1264Q929 1264 1036 1215T1216 1081T1324 874T1341 614Q1318 429 1220 281T971 49T645 -35ZM664 98Q859 98 1007 245T1184
614Q1202 761 1156 879T1013 1064T786 1130Q589 1130 442 984T266 614Q238 392 352 245T664 98Z" />
<glyph unicode="P" glyph-name="P" horiz-adv-x="927" d="M59 0L276 1229H643Q719 1229 779 1207T877 1147T938 1059T966 951T961 834Q933 676 826 582T532 487H299L213 0H59ZM322 616H535Q599 616 650 637T733 693T784 769T811 854Q821 896 813 939T786 1018T723
1076T618 1098H408L322 616Z" />
<glyph unicode="Q" glyph-name="Q" horiz-adv-x="1394" d="M664 98Q859 98 1007 245T1184 614Q1202 761 1156 879T1013 1064T786 1130Q589 1130 442 984T266 614Q238 392 352 245T664 98ZM1116 -518Q1046 -518 982 -486T869 -407T771 -313T664 -234T545 -201Q389
-201 260 -334L199 -268Q226 -230 259 -191T354 -96T479 -10Q289 44 185 215T109 614Q132 800 229 948T478 1180T805 1264Q929 1264 1036 1215T1216 1081T1324 874T1341 614Q1306 339 1117 157T670 -35Q558 -45 477 -106Q562 -90 624 -95T740 -124T833 -177T913
-242T986 -304T1062 -352T1149 -371Q1234 -371 1287 -323T1374 -182H1479Q1464 -246 1436 -303T1365 -410T1258 -489T1116 -518Z" />
<glyph unicode="R" glyph-name="R" horiz-adv-x="1044" d="M326 637H539Q663 637 728 702T811 864Q821 906 813 948T786 1023T723 1077T618 1098H408L326 637ZM842 -14Q744 -14 679 41T573 215L475 508H303L213 0H59L276 1229H643Q719 1229 779 1208T877 1151T939
1065T966 960T961 844Q937 713 850 625T627 514L717 268Q750 177 794 140T903 102Q937 102 969 111L948 0Q893 -14 842 -14Z" />
<glyph unicode="S" glyph-name="S" horiz-adv-x="925" d="M383 -29Q257 -29 163 21T20 135L72 276Q94 248 110 230T158 184T222 140T302 111T403 98Q510 98 586 159T676 319Q689 417 637 480T436 588Q285 633 219 729T172 956T302 1171T573 1257Q661 1257 746
1222T877 1135L829 1016Q770 1069 706 1099T549 1130Q460 1130 396 1083T319 952Q295 785 512 721Q688 669 766 568T823 326Q810 232 769 162T666 51T535 -9T383 -29Z" />
<glyph unicode="T" glyph-name="T" horiz-adv-x="1013" d="M350 0L545 1098H139L162 1229H1124L1102 1098H698L504 0H350Z" />
<glyph unicode="U" glyph-name="U" horiz-adv-x="1267" d="M578 -35Q465 -35 378 0T231 110T153 297T160 567L276 1229H434L317 565Q277 333 352 216T590 98Q739 98 849 216T999 565L1116 1229H1266L1149 567Q1042 -35 578 -35Z" />
<glyph unicode="V" glyph-name="V" horiz-adv-x="1122" d="M432 0L158 1229H309L526 250L1085 1229H1239L530 0H432Z" />
<glyph unicode="W" glyph-name="W" horiz-adv-x="1597" d="M334 0L158 1229H309L424 322V246Q424 249 436 277T457 322L889 1229H983L1094 322Q1098 280 1098 246Q1098 249 1108 278T1126 322L1563 1229H1714L1104 0H1008L887 844L879 911L850 844L430 0H334Z" />
<glyph unicode="X" glyph-name="X" horiz-adv-x="1052" d="M-78 0L467 631L162 1229H336L575 748L991 1229H1165L647 629L971 0H797L539 514L96 0H-78Z" />
<glyph unicode="Y" glyph-name="Y" horiz-adv-x="1064" d="M377 0L463 492L145 1229H307L563 625L1030 1229H1194L614 492L528 0H377Z" />
<glyph unicode="Z" glyph-name="Z" horiz-adv-x="950" d="M39 0L18 94L791 1098H195L219 1229H969L989 1135L217 131H813L788 0H39Z" />
<glyph unicode="[" glyph-name="bracketleft" horiz-adv-x="614" d="M109 -180L387 1389H698L682 1303H494L248 -94H436L420 -180H109Z" />
<glyph unicode="\" glyph-name="backslash" horiz-adv-x="641" d="M477 -37L143 1237L229 1266L563 -8L477 -37Z" />
<glyph unicode="]" glyph-name="bracketright" horiz-adv-x="614" d="M571 1389L293 -180H-18L-2 -94H186L432 1303H244L260 1389H571Z" />
<glyph unicode="^" glyph-name="asciicircum" horiz-adv-x="925" d="M150 575L78 629L614 1264L922 629L844 575L586 1075L150 575Z" />
<glyph unicode="_" glyph-name="underscore" horiz-adv-x="661" d="M-90 -90L-74 0H586L569 -90H-90Z" />
<glyph unicode="`" glyph-name="grave" horiz-adv-x="614" d="M463 825L201 952Q184 960 170 976T156 1012Q156 1036 174 1054T217 1073Q229 1073 241 1068T260 1058T281 1041T301 1024L489 868L463 825Z" />
<glyph unicode="a" glyph-name="a" horiz-adv-x="888" d="M365 88Q435 88 496 140T573 272L627 563Q567 614 475 614Q370 614 297 539T203 350Q182 237 223 163T365 88ZM319 -18Q220 -18 154 34T66 172T61 360Q89 516 208 618T483 721Q587 721 662 662L707 717H795L692
147Q681 74 727 74Q754 74 786 86V25Q727 -14 657 -14Q553 -14 547 82Q507 40 442 11T319 -18Z" />
<glyph unicode="b" glyph-name="b" horiz-adv-x="831" d="M305 -23Q171 -23 98 62T45 258L219 1229L365 1253L256 627Q294 666 357 693T477 721Q625 721 693 609T733 338Q705 183 583 80T305 -23ZM317 80Q422 80 496 157T592 348Q613 462 573 538T432 614Q362
614 300 562T221 428L188 272Q170 183 211 132T317 80Z" />
<glyph unicode="c" glyph-name="c" horiz-adv-x="727" d="M682 647L664 539Q581 612 475 612Q372 612 295 546T199 369Q177 245 236 166T412 86Q488 86 567 141L612 72Q522 -23 362 -23Q256 -23 179 34T71 181T55 371Q81 525 198 623T467 721Q530 721 591 699T682 647Z" />
<glyph unicode="d" glyph-name="d" horiz-adv-x="888" d="M319 -18Q220 -18 154 34T66 172T61 360Q89 516 208 618T483 721Q582 721 647 678L743 1229L889 1253L692 147Q681 74 727 74Q754 74 786 86V25Q727 -14 657 -14Q553 -14 547 82Q507 40 442 11T319 -18ZM365
88Q435 88 496 140T573 272L627 563Q567 614 475 614Q370 614 297 539T203 350Q182 237 223 163T365 88Z" />
<glyph unicode="e" glyph-name="e" horiz-adv-x="743" d="M188 348Q319 363 423 422T537 539Q542 568 519 591T453 614Q367 614 288 542T188 348ZM350 -23Q248 -23 174 34T70 179T55 360Q82 519 203 620T471 721Q568 721 626 670T670 545Q663 506 629 465T537
383T387 310T184 262Q192 174 250 130T387 86Q497 86 596 168L643 94Q520 -23 350 -23Z" />
<glyph unicode="f" glyph-name="f" horiz-adv-x="501" d="M164 602H35L53 698H180L229 977Q243 1055 272 1112T342 1201T426 1249T520 1264Q538 1264 566 1258T604 1247L586 1149Q554 1159 532 1159Q401 1159 371 977L322 698H516L498 602H305L172 -164Q152 -278
86 -347T-90 -416Q-138 -416 -172 -399T-221 -362L-205 -262Q-188 -282 -160 -296T-104 -311Q-46 -311 -15 -277T33 -154L164 602Z" />
<glyph unicode="g" glyph-name="g" horiz-adv-x="864" d="M365 88Q435 88 497 139T573 270L627 563Q567 614 475 614Q370 614 297 539T203 350Q182 237 223 163T365 88ZM274 -414Q170 -414 45 -350V-227Q110 -265 163 -281T285 -297Q389 -297 445 -234T522 -27L537
68Q494 30 435 6T319 -18Q220 -18 154 34T66 172T61 360Q89 516 208 618T483 721Q589 721 664 662L709 717H797L662 -33Q624 -242 533 -328T274 -414Z" />
<glyph unicode="h" glyph-name="h" horiz-adv-x="876" d="M659 -14Q610 -14 578 18T545 104Q545 160 579 290T614 487Q614 602 510 602Q428 602 342 520T229 287L178 0H37L254 1229L399 1253L276 553Q330 630 405 675T559 721Q653 721 704 664T756 516Q756 438
721 304T686 117Q686 97 696 86T725 74Q742 74 784 86V25Q723 -14 659 -14Z" />
<glyph unicode="i" glyph-name="i" horiz-adv-x="434" d="M197 -14Q148 -14 115 18T82 104Q82 162 128 346T174 586Q174 605 163 617T135 629Q112 629 76 616V678Q139 717 201 717Q250 717 282 685T315 598Q315 540 269 357T223 117Q223 97 234 86T262 74Q277
74 322 86V25Q261 -14 197 -14ZM317 930Q282 930 260 955T242 1016T275 1076T338 1102T395 1077T414 1016Q409 981 381 956T317 930Z" />
<glyph unicode="j" glyph-name="j" horiz-adv-x="413" d="M-88 -416Q-136 -416 -170 -399T-219 -362L-203 -262Q-186 -282 -158 -296T-102 -311Q-44 -311 -13 -277T35 -154L160 555Q172 629 125 629Q102 629 66 616V678Q128 717 195 717Q256 717 286 677T301 555L174
-164Q155 -278 89 -347T-88 -416ZM336 930T301 930T244 955T225 1016Q230 1051 258 1076T322 1102Q357 1102 379 1077T397 1016T364 956Z" />
<glyph unicode="k" glyph-name="k" horiz-adv-x="819" d="M580 -14Q550 -14 524 -5T475 26T436 68T400 125T370 187T340 258Q317 310 306 326T276 342Q255 342 245 331T229 293L176 0H35L252 1229L397 1253L252 418L647 698H825L408 395Q439 367 471 293Q474 286
480 272Q498 230 507 210T531 161T559 119T588 96T625 86Q686 86 727 121L739 47Q672 -14 580 -14Z" />
<glyph unicode="l" glyph-name="l" horiz-adv-x="393" d="M160 -14Q98 -14 69 25T53 147L246 1229L391 1253L195 147Q182 74 229 74Q244 74 289 86V25Q228 -14 160 -14Z" />
<glyph unicode="m" glyph-name="m" horiz-adv-x="1310" d="M1094 -14Q1044 -14 1012 16T979 104Q979 160 1014 290T1049 487Q1049 547 1029 574T965 602Q891 602 811 520T705 287L653 0H512L586 403Q606 504 590 553T512 602Q438 602 360 520T254 287L203 0H61L160
555Q172 629 125 629Q102 629 66 616V678Q128 717 195 717Q254 717 284 675T303 557Q358 632 425 676T561 721Q646 721 690 671T737 532Q792 622 865 671T1014 721Q1101 721 1145 666T1190 516Q1190 438 1155 304T1120 117Q1120 97 1131 86T1159 74Q1174 74 1219
86V25Q1158 -14 1094 -14Z" />
<glyph unicode="n" glyph-name="n" horiz-adv-x="901" d="M684 -14Q635 -14 602 18T569 104Q569 160 604 290T639 487Q639 602 535 602Q498 602 457 583T374 528T301 428T254 287L203 0H61L160 555Q172 629 125 629Q102 629 66 616V678Q128 717 195 717Q255 717
285 674T301 553Q355 630 429 675T584 721Q678 721 729 664T780 516Q780 438 746 304T711 117Q711 97 721 86T750 74Q767 74 809 86V25Q748 -14 684 -14Z" />
<glyph unicode="o" glyph-name="o" horiz-adv-x="884" d="M793 330Q767 175 651 74T383 -27Q270 -27 188 29T72 176T55 369Q81 523 197 624T465 725Q579 725 661 668T776 522T793 330ZM649 332Q672 462 617 539T461 616Q368 616 293 548T199 367Q176 236 230 159T387
82Q482 82 556 151T649 332Z" />
<glyph unicode="p" glyph-name="p" horiz-adv-x="897" d="M387 88Q492 88 564 162T657 348Q678 462 638 538T498 614Q427 614 364 561T287 428L236 135Q292 88 387 88ZM0 -399L154 469Q122 407 45 317L-10 367Q72 458 136 567T215 780L223 834H356L322 627Q362
670 424 695T543 721Q691 721 759 609T799 338Q771 183 653 83T379 -18Q289 -18 217 20L141 -399H0Z" />
<glyph unicode="q" glyph-name="q" horiz-adv-x="864" d="M362 88Q433 88 496 139T573 270L627 563Q567 614 475 614Q370 614 297 539T203 350Q182 237 222 163T362 88ZM588 -403Q526 -403 497 -364T481 -242L539 72Q499 34 437 8T317 -18Q218 -18 153 35T65 173T61
360Q89 516 208 618T483 721Q589 721 664 662L709 717H797L623 -242Q610 -315 657 -315Q672 -315 717 -303V-365Q655 -403 588 -403Z" />
<glyph unicode="r" glyph-name="r" horiz-adv-x="675" d="M203 0H61L160 555Q172 629 125 629Q102 629 66 616V678Q128 717 195 717Q253 717 283 678T303 567Q333 631 394 674T510 717Q577 717 612 682T647 594Q647 523 598 488T487 463Q518 495 518 537Q518 562
501 578T455 594Q398 594 341 523T256 301L203 0Z" />
<glyph unicode="s" glyph-name="s" horiz-adv-x="624" d="M242 -23Q177 -23 115 -3T24 38L-6 59L33 164Q124 88 246 88Q301 88 340 109T387 172Q402 265 256 305Q46 362 80 543Q94 621 162 671T334 721Q400 721 461 699T553 653L512 557Q484 575 464 585T409 605T334
614Q279 614 247 596T209 547Q201 503 224 475T330 424Q434 394 481 329T514 182Q496 78 422 28T242 -23Z" />
<glyph unicode="t" glyph-name="t" horiz-adv-x="512" d="M252 -14Q161 -14 112 44T84 215L154 602H47L66 698H170L213 932L358 956L311 698H492L473 602H295L225 215Q200 78 297 78Q345 78 389 109L410 39Q340 -14 252 -14Z" />
<glyph unicode="u" glyph-name="u" horiz-adv-x="899" d="M197 717Q246 717 278 685T311 598Q311 542 269 412T227 215Q227 100 330 100Q412 100 497 182T610 414L662 698H803L702 147Q691 74 737 74Q752 74 797 86V25Q736 -14 668 -14Q607 -14 578 28T563 147Q510
71 436 27T281 -18Q187 -18 137 38T86 186Q86 264 128 399T170 586Q170 605 159 617T131 629Q108 629 72 616V678Q135 717 197 717Z" />
<glyph unicode="v" glyph-name="v" horiz-adv-x="802" d="M285 -23Q191 -23 132 35T72 190Q72 266 113 397T154 582Q154 602 143 613T115 625Q104 625 55 612V674Q118 713 184 713Q235 713 267 683T299 594Q299 540 258 409T217 201Q217 147 242 117T315 86Q392
86 457 150T557 308T592 492Q592 626 526 698H647Q685 665 704 606T723 487Q723 404 694 317T612 152T473 26T285 -23Z" />
<glyph unicode="w" glyph-name="w" horiz-adv-x="1173" d="M264 -23Q166 -23 118 34T70 193Q70 270 112 400T154 582Q154 602 143 613T115 625Q104 625 55 612V674Q118 713 184 713Q233 713 266 681T299 594T256 411T213 207Q213 86 315 86Q366 86 413 123T487
217Q492 702 614 702Q659 702 675 653T683 528T653 373T606 221Q622 86 735 86Q787 86 829 119T898 205T938 322T952 451Q952 520 932 589T874 698H995Q1083 623 1083 444Q1083 379 1069 315T1025 189T953 81T847 6T709 -23Q647 -23 595 11T520 100Q410 -23 264
-23Z" />
<glyph unicode="x" glyph-name="x" horiz-adv-x="790" d="M293 352L213 561Q190 623 145 623Q103 623 74 594L47 655Q78 684 120 700T199 717Q241 717 279 697T336 627L395 465L489 618Q550 717 649 717Q711 717 746 680T768 578H700Q700 600 690 615T659 631Q638
631 619 613T571 551L446 358L532 141Q557 80 600 80T672 109L698 47Q667 19 625 3T547 -14Q442 -14 410 76L346 246L246 84Q186 -14 84 -14Q22 -14 -13 23T-35 125H33Q33 103 43 88T76 72Q94 72 112 88T162 152L293 352Z" />
<glyph unicode="y" glyph-name="y" horiz-adv-x="876" d="M279 -414Q178 -414 53 -350V-227Q118 -265 171 -281T293 -297Q341 -297 375 -287T440 -248T494 -165T532 -27L563 147Q510 71 437 27T283 -18Q189 -18 138 39T86 186Q86 264 128 399T170 586Q170 605
159 617T131 629Q108 629 72 616V678Q135 717 197 717Q246 717 278 685T311 598Q311 542 269 412T227 215Q227 100 332 100Q369 100 410 119T491 174T563 273T610 414L662 698H803L672 -33Q635 -241 542 -327T279 -414Z" />
<glyph unicode="z" glyph-name="z" horiz-adv-x="753" d="M672 698Q680 671 677 643T671 592T653 545T627 501T593 461T554 423T510 388T464 355T416 324Q277 238 239 204Q214 182 205 164Q229 156 272 139T337 115T393 101T463 94Q510 94 538 119T578 205H633Q650
84 602 27T459 -31Q400 -31 337 -10T227 32T160 53Q108 53 117 0H45Q40 27 40 52T44 100T57 144T78 185T106 222T139 257T177 289T218 320T260 349T305 377Q478 481 512 537Q507 539 478 550T441 565T410 575T374 585T342 591T305 594Q253 594 224 570T180 479H123Q107
574 159 646T305 719Q358 719 411 701T502 664T557 645Q608 645 602 698H672Z" />
<glyph unicode="{" glyph-name="braceleft" horiz-adv-x="624" d="M401 -227Q351 -195 322 -167T275 -105T254 -23T256 83T279 233Q315 440 253 512Q226 543 153 569Q126 579 123 580L131 633Q223 663 247 675Q328 717 369 824Q394 886 410 979Q436 1130 464 1207T543
1335T696 1440L721 1376Q686 1355 662 1335T619 1287T589 1236T565 1166T546 1086T526 979Q510 891 490 829T447 729T390 665T324 627T240 602Q287 590 315 578T368 540T402 476T410 375T393 225Q382 164 377 133T367 59T363 -5T368 -55T383 -100T409 -137T449
-174L401 -227Z" />
<glyph unicode="|" glyph-name="bar" horiz-adv-x="446" d="M66 -197L348 1405H446L164 -197H66Z" />
<glyph unicode="}" glyph-name="braceright" horiz-adv-x="624" d="M-6 -227L-31 -164Q4 -143 28 -123T71 -75T101 -24T125 46T144 126T164 233Q180 321 200 383T243 484T300 548T367 585T451 610Q404 622 376 634T323 672T288 736T280 837T297 987Q309 1059 314
1094T324 1175T326 1245T313 1296T287 1345T242 1386L289 1440Q339 1408 368 1380T415 1318T437 1236T434 1130T412 979Q403 929 399 888T398 816T406 762T423 721T445 692T475 671T508 655T545 641Q560 636 567 633L559 580Q467 550 442 537Q361 495 320 385Q297
323 281 233Q261 119 243 54T192 -65T115 -153T-6 -227Z" />
<glyph unicode="~" glyph-name="asciitilde" horiz-adv-x="864" d="M555 305Q524 305 484 324T412 365T341 407T274 426Q237 426 220 401T182 313H125Q135 424 183 480T307 537Q338 537 378 518T450 477T521 435T588 416Q607 416 620 422T645 447T662 479T682
528H739Q727 417 679 361T555 305Z" />
</font>
</defs>
</svg>
